<?xml version="1.0" standalone="no"?>
<!DOCTYPE svg PUBLIC "-//W3C//DTD SVG 20010904//EN"
 "http://www.w3.org/TR/2001/REC-SVG-20010904/DTD/svg10.dtd">
<svg version="1.0" xmlns="http://www.w3.org/2000/svg"
 width="512.000000pt" height="512.000000pt" viewBox="0 0 512.000000 512.000000"
 preserveAspectRatio="xMidYMid meet">

<g transform="translate(0.000000,512.000000) scale(0.100000,-0.100000)"
fill="#6a15e1" stroke="none">
<path d="M1310 4309 c-552 -62 -997 -482 -1123 -1059 -19 -90 -20 -133 -24
-825 -5 -764 -1 -852 38 -1003 87 -330 312 -555 608 -608 115 -20 808 -19 926
1 101 18 208 60 293 115 120 77 166 135 444 556 300 453 282 434 412 434 87 0
129 -14 167 -56 14 -16 133 -193 264 -393 132 -200 262 -389 289 -418 171
-188 445 -282 695 -239 174 30 304 97 427 220 127 128 199 269 224 444 8 53
10 322 8 882 -4 770 -5 809 -25 895 -60 261 -171 473 -343 658 -445 475 -1157
540 -1672 152 l-86 -65 -101 0 -102 0 -86 70 c-155 125 -366 214 -568 239
-103 13 -553 13 -665 0z m375 -339 c148 -40 289 -118 403 -221 29 -27 70 -53
90 -59 24 -8 161 -10 403 -8 l365 3 40 28 c21 15 68 52 104 82 80 68 236 147
350 177 72 19 109 23 240 22 139 -1 164 -3 245 -28 361 -109 633 -423 700
-805 21 -118 22 -1609 1 -1686 -45 -168 -173 -296 -341 -340 -155 -40 -319 7
-434 124 -36 36 -145 193 -299 427 -173 265 -258 386 -297 423 -61 58 -153
105 -234 121 -31 6 -226 10 -465 10 -453 0 -490 -4 -596 -61 -31 -16 -80 -53
-107 -82 -29 -30 -155 -211 -293 -422 -259 -397 -310 -460 -413 -508 -69 -33
-127 -46 -202 -47 -208 0 -364 131 -436 370 -23 75 -23 76 -27 836 -3 742 -2
765 18 865 41 199 127 363 270 513 146 153 324 250 527 286 85 15 299 5 388
-20z"/>
<path d="M1370 3498 c-67 -34 -90 -86 -90 -205 l0 -93 -93 0 c-119 0 -171 -23
-205 -90 -28 -56 -28 -84 1 -140 33 -67 85 -90 204 -90 l93 0 0 -93 c0 -119
23 -171 90 -204 24 -13 56 -23 70 -23 14 0 46 10 70 23 67 33 90 85 90 204 l0
93 93 0 c119 0 171 23 205 90 12 24 22 56 22 70 0 14 -10 46 -22 70 -34 67
-86 90 -205 90 l-93 0 0 93 c0 119 -23 171 -90 205 -24 12 -56 22 -70 22 -14
0 -46 -10 -70 -22z"/>
<path d="M3610 3498 c-48 -25 -90 -89 -90 -138 0 -14 10 -46 23 -70 24 -48 88
-90 137 -90 49 0 113 42 138 90 12 24 22 56 22 70 0 49 -42 113 -90 138 -24
12 -56 22 -70 22 -14 0 -46 -10 -70 -22z"/>
<path d="M3290 3178 c-48 -25 -90 -89 -90 -138 0 -14 10 -46 23 -70 24 -48 88
-90 137 -90 14 0 46 10 70 23 48 24 90 88 90 137 0 49 -42 113 -90 138 -24 12
-56 22 -70 22 -14 0 -46 -10 -70 -22z"/>
<path d="M3930 3178 c-48 -25 -90 -89 -90 -138 0 -14 10 -46 23 -70 24 -48 88
-90 137 -90 49 0 113 42 138 90 12 24 22 56 22 70 0 49 -42 113 -90 138 -24
12 -56 22 -70 22 -14 0 -46 -10 -70 -22z"/>
<path d="M3610 2858 c-48 -25 -90 -89 -90 -138 0 -14 10 -46 23 -70 24 -48 88
-90 137 -90 14 0 46 10 70 23 48 24 90 88 90 137 0 49 -42 113 -90 138 -24 12
-56 22 -70 22 -14 0 -46 -10 -70 -22z"/>
</g>
</svg>
